<?xml version="1.0" encoding="utf-8"?><svg viewBox="0 0 160 75" xmlns="http://www.w3.org/2000/svg" xmlns:xlink="http://www.w3.org/1999/xlink"><style>:root>svg{display:none}:root>svg:target{display:block}</style><svg fill="none" viewBox="0 0 31 16" id="arrow" xmlns="http://www.w3.org/2000/svg"><path d="M30.707 8.707a1 1 0 000-1.414L24.343.929a1 1 0 10-1.414 1.414L28.586 8l-5.657 5.657a1 1 0 001.414 1.414l6.364-6.364zM0 9h30V7H0v2z" fill="snow"/></svg><svg fill="none" viewBox="0 0 30 12" id="burger" xmlns="http://www.w3.org/2000/svg"><path d="M0 7h30V5H0v2zM0 2h30V0H0v2zM0 12h30v-2H0v2z" fill="#fff"/></svg><svg fill="none" viewBox="0 0 160 35" id="iconLogoDark" xmlns="http://www.w3.org/2000/svg"><path d="M7.54.383h7.234v1.933h-2.402v27.387h-2.154V2.316H7.539V.383zM25.087 4.415c.038 0 .058.178.058.533 0 .355-.005.71-.015 1.066v.517c-.766 0-1.446.177-2.038.533-.582.344-1.155.971-1.717 1.882v20.758h-2.17V4.714h2.17v2.783c.252-.978.693-1.733 1.324-2.266.64-.544 1.436-.816 2.388-.816zM29.707 4.715h2.184v24.988h-2.184V4.715zm0-4.698h2.17v2.399h-2.17v-2.4zM44.416 12.028c0-1.955-.073-3.17-.218-3.648a5.605 5.605 0 00-.495-1.25c-.194-.344-.515-.516-.961-.516-.447 0-.776.033-.99.1-.524.166-.907.65-1.15 1.449-.243.789-.364 2.088-.364 3.898v9.93c0 2.12.146 3.62.437 4.497.3.866.864 1.3 1.688 1.3.825 0 1.374-.434 1.645-1.3.272-.866.408-2.393.408-4.581v-9.88zM40.238 6.63c.514-1.4 1.48-2.099 2.897-2.099.99 0 1.732.378 2.227 1.133.505.744.835 1.71.99 2.899.155 1.177.233 2.599.233 4.264v9.08c0 3.143-.359 5.28-1.077 6.414-.718 1.121-1.699 1.682-2.94 1.682-.496 0-.962-.2-1.398-.6a3.616 3.616 0 01-.932-1.499v6.214h-2.169V4.714h2.169V6.63zM61.038 5.014l.014.683c0 1.2.544 3.332 1.63 6.397.748-1.066 1.32-2.11 1.718-3.131.408-1.033.612-2.183.612-3.449s-.121-2.166-.364-2.699C64.405 2.271 63.833 2 62.93 2c-1.174 0-1.795.772-1.863 2.316a7.28 7.28 0 01-.03.483v.216zm6.26 18.609c1.377 3.31 2.212 5.336 2.503 6.08h-1.805c-.252-.688-.766-1.943-1.543-3.765-.485 1.255-.985 2.155-1.5 2.7-.514.543-1.028.91-1.542 1.099-.505.2-1.087.3-1.747.3-1.32 0-2.388-.522-3.203-1.566s-1.223-2.477-1.223-4.299c0-1.82.16-3.17.48-4.048.33-.877.641-1.649.932-2.315.291-.667 1.194-1.977 2.708-3.932-1.62-4.154-2.431-6.891-2.431-8.213 0-3.765 1.388-5.647 4.163-5.647 1.621 0 2.684.488 3.188 1.466.515.977.772 2.343.772 4.098s-.34 3.287-1.02 4.598c-.669 1.3-1.513 2.67-2.532 4.114.689 1.822 1.616 4.11 2.78 6.864.786-1.888 1.65-3.465 2.592-4.731l1.004 1.783c-.873 1.243-1.732 3.048-2.577 5.414zm-1.922-.184a433.047 433.047 0 01-3.13-7.346 22.458 22.458 0 00-2.009 3.781c-.524 1.278-.79 2.738-.8 4.382 0 2.465.83 3.698 2.489 3.698.912 0 1.679-.61 2.3-1.832.31-.633.694-1.527 1.15-2.683zM90.28.383h2.432v29.32h-1.965v-12.56L91.08 5.33l-3.654 23.74H85.36L81.575 5.33l.335 11.811v12.561h-1.98V.383h2.431l4.033 24.622L90.28.383zM98.89 4.715h2.184v24.988H98.89V4.715zm0-4.698h2.169v2.399H98.89v-2.4zM109.421 7.163c.194-.744.621-1.388 1.281-1.932.67-.555 1.456-.833 2.358-.833.903 0 1.645.428 2.228 1.283.582.855.873 2.138.873 3.848v20.174h-2.169V9.33c0-.966-.194-1.66-.582-2.082-.379-.433-.888-.65-1.529-.65-1.64 0-2.46.927-2.46 2.782v20.324h-2.169V4.714h2.169v2.45zM128.089 12.428c0-2.144-.145-3.643-.436-4.498-.282-.866-.835-1.3-1.66-1.3s-1.378.445-1.659 1.333c-.282.878-.423 2.405-.423 4.581v9.896c0 2.288.156 3.754.466 4.398.32.644.791.966 1.412.966.621 0 1.063-.127 1.325-.383.272-.266.5-.705.684-1.316.194-.622.291-1.832.291-3.632V12.428zM128.075 0h2.183v29.703h-2.183v-1.899c-.505 1.389-1.471 2.083-2.897 2.083-1.621-.011-2.65-1.117-3.086-3.316-.243-1.21-.364-2.837-.364-4.88v-8.78c0-3.354.349-5.609 1.048-6.764.708-1.155 1.703-1.732 2.984-1.732.495 0 .951.205 1.369.616.427.4.742.889.946 1.466V0z" fill="#333"/><path fill-rule="evenodd" clip-rule="evenodd" d="M153.384 8.014l6.325 7.238a1.257 1.257 0 010 1.608l-6.325 7.238a.907.907 0 01-1.405 0 1.257 1.257 0 010-1.608l4.628-5.296H139.13v-2.275h17.477l-4.628-5.296a1.257 1.257 0 010-1.609.907.907 0 011.405 0z" fill="#EFC224"/><path d="M3.975 14.919H0v2.274h3.975V14.92z" fill="#EFC224"/></svg><svg fill="none" viewBox="0 0 160 35" id="iconLogoWhite" xmlns="http://www.w3.org/2000/svg"><path d="M7.54.383h7.234v1.933h-2.402v27.387h-2.154V2.316H7.539V.383zM25.087 4.415c.038 0 .058.177.058.533 0 .355-.005.71-.015 1.066v.516c-.766 0-1.446.178-2.038.534-.582.344-1.155.971-1.717 1.882v20.758h-2.17V4.713h2.17v2.783c.252-.978.693-1.733 1.324-2.266.64-.544 1.436-.816 2.388-.816zM29.707 4.715h2.184v24.988h-2.184V4.715zm0-4.698h2.17v2.399h-2.17v-2.4zM44.416 12.028c0-1.955-.073-3.17-.218-3.648a5.605 5.605 0 00-.495-1.25c-.194-.344-.515-.516-.961-.516-.447 0-.776.033-.99.1-.524.166-.907.65-1.15 1.449-.243.789-.364 2.088-.364 3.898v9.93c0 2.12.146 3.62.437 4.497.3.867.864 1.3 1.688 1.3.825 0 1.374-.433 1.645-1.3.272-.866.408-2.393.408-4.581v-9.879zM40.238 6.63c.514-1.399 1.48-2.099 2.897-2.099.99 0 1.732.378 2.227 1.133.505.744.835 1.71.99 2.899.155 1.177.233 2.599.233 4.265v9.079c0 3.143-.359 5.28-1.077 6.414-.718 1.121-1.699 1.682-2.94 1.682-.496 0-.962-.2-1.398-.6a3.616 3.616 0 01-.932-1.499v6.214h-2.169V4.715h2.169V6.63zM61.038 5.014l.014.683c0 1.2.544 3.332 1.63 6.398.748-1.067 1.32-2.11 1.718-3.132.408-1.033.612-2.183.612-3.449s-.121-2.165-.364-2.699C64.405 2.271 63.833 2 62.93 2c-1.174 0-1.795.772-1.863 2.316a7.28 7.28 0 01-.03.483v.216zm6.26 18.609c1.377 3.31 2.212 5.336 2.503 6.08h-1.805c-.252-.688-.766-1.943-1.543-3.764-.485 1.255-.985 2.154-1.5 2.698-.514.544-1.028.911-1.542 1.1-.505.2-1.087.3-1.747.3-1.32 0-2.388-.522-3.203-1.566s-1.223-2.477-1.223-4.298c0-1.822.16-3.171.48-4.049.33-.877.641-1.649.932-2.315.291-.667 1.194-1.977 2.708-3.932-1.62-4.154-2.431-6.891-2.431-8.213 0-3.765 1.388-5.647 4.163-5.647 1.621 0 2.684.488 3.188 1.466.515.977.772 2.343.772 4.098s-.34 3.287-1.02 4.598c-.669 1.3-1.513 2.67-2.532 4.115.689 1.821 1.616 4.109 2.78 6.863.786-1.888 1.65-3.465 2.592-4.731l1.004 1.783c-.873 1.244-1.732 3.048-2.577 5.414zm-1.922-.183a433.047 433.047 0 01-3.13-7.347 22.458 22.458 0 00-2.009 3.782c-.524 1.277-.79 2.737-.8 4.38 0 2.466.83 3.7 2.489 3.7.912 0 1.679-.612 2.3-1.833.31-.633.694-1.527 1.15-2.682zM90.28.383h2.432v29.32h-1.965v-12.56L91.08 5.33l-3.654 23.74H85.36L81.575 5.33l.335 11.811v12.561h-1.98V.383h2.431l4.033 24.623L90.28.383zM98.89 4.715h2.184v24.988H98.89V4.715zm0-4.698h2.169v2.399H98.89v-2.4zM109.421 7.163c.194-.744.621-1.388 1.281-1.932.67-.555 1.456-.833 2.358-.833.903 0 1.645.428 2.228 1.283.582.855.873 2.138.873 3.848v20.174h-2.169V9.33c0-.966-.194-1.66-.582-2.082-.379-.433-.888-.65-1.529-.65-1.64 0-2.46.927-2.46 2.782v20.325h-2.169V4.713h2.169v2.45zM128.089 12.428c0-2.144-.145-3.643-.436-4.498-.282-.866-.835-1.3-1.66-1.3s-1.378.445-1.659 1.333c-.282.878-.423 2.405-.423 4.581v9.896c0 2.288.156 3.754.466 4.398.32.644.791.966 1.412.966.621 0 1.063-.127 1.325-.383.272-.266.5-.705.684-1.316.194-.622.291-1.832.291-3.632V12.428zM128.075 0h2.183v29.703h-2.183v-1.899c-.505 1.389-1.471 2.083-2.897 2.083-1.621-.011-2.65-1.117-3.086-3.316-.243-1.21-.364-2.837-.364-4.88v-8.78c0-3.354.349-5.609 1.048-6.764.708-1.155 1.703-1.732 2.984-1.732.495 0 .951.205 1.369.616.427.4.742.889.946 1.466V0z" fill="#fff"/><path fill-rule="evenodd" clip-rule="evenodd" d="M153.384 8.014l6.325 7.238a1.257 1.257 0 010 1.608l-6.325 7.238a.907.907 0 01-1.405 0 1.257 1.257 0 010-1.608l4.628-5.296H139.13v-2.275h17.477l-4.628-5.296a1.257 1.257 0 010-1.609.907.907 0 011.405 0z" fill="#EFC224"/><path d="M3.975 14.919H0v2.274h3.975V14.92z" fill="#EFC224"/></svg><svg fill="none" viewBox="0 0 75 75" id="iconPlay" xmlns="http://www.w3.org/2000/svg"><g opacity=".75" stroke="#fff" stroke-width="2"><circle cx="37.5" cy="37.5" r="36.5"/><path d="M32.25 28.407L48 37.5l-15.75 9.093V28.407z"/></g></svg></svg>