<?xml version="1.0" encoding="utf-8"?><svg viewBox="0 0 20 18" xmlns="http://www.w3.org/2000/svg" xmlns:xlink="http://www.w3.org/1999/xlink"><style>:root>svg{display:none}:root>svg:target{display:block}</style><svg viewBox="0 0 10 18" id="iconFB" xmlns="http://www.w3.org/2000/svg"><path d="M9.365.004L7.031 0C4.41 0 2.714 1.739 2.714 4.43v2.042H.367A.367.367 0 000 6.84V9.8c0 .203.164.367.367.367h2.347v7.467c0 .203.164.367.367.367h3.062a.367.367 0 00.367-.367v-7.467h2.744a.367.367 0 00.367-.367l.001-2.96a.368.368 0 00-.367-.367H6.51V4.741c0-.832.198-1.255 1.282-1.255h1.573a.367.367 0 00.367-.367V.37a.367.367 0 00-.367-.367z"/></svg><svg viewBox="0 0 19 15" id="iconTwitter" xmlns="http://www.w3.org/2000/svg"><path d="M18.731 1.736a7.36 7.36 0 01-2.124.571c.8-.48 1.34-1.157 1.622-2.033a7.243 7.243 0 01-2.341.891C15.157.388 14.258 0 13.192 0c-1.02 0-1.89.36-2.61 1.08-.72.719-1.079 1.589-1.079 2.609 0 .274.03.556.091.845a10.28 10.28 0 01-4.243-1.136A10.459 10.459 0 011.988.674a3.614 3.614 0 00-.503 1.861c0 .632.149 1.219.446 1.76.297.54.696.978 1.199 1.313a3.66 3.66 0 01-1.668-.469v.046c0 .891.28 1.673.84 2.347A3.63 3.63 0 004.42 8.806c-.32.083-.644.125-.971.125-.214 0-.446-.019-.697-.057a3.61 3.61 0 001.302 1.822 3.6 3.6 0 002.147.737c-1.34 1.05-2.866 1.576-4.58 1.576-.327 0-.624-.015-.89-.046 1.713 1.104 3.601 1.656 5.664 1.656 1.31 0 2.54-.207 3.69-.622 1.15-.415 2.131-.971 2.946-1.668a11.157 11.157 0 002.107-2.404c.59-.906 1.03-1.852 1.32-2.838a10.486 10.486 0 00.422-3.444 7.725 7.725 0 001.85-1.907z"/></svg><svg viewBox="0 0 20 12" id="iconVK" xmlns="http://www.w3.org/2000/svg"><path d="M19.894 10.305a1.36 1.36 0 00-.068-.13c-.347-.625-1.01-1.392-1.989-2.301l-.02-.021-.01-.01-.011-.01h-.01c-.445-.424-.726-.71-.844-.855-.216-.278-.264-.559-.146-.843.083-.216.396-.67.937-1.364.285-.368.51-.663.677-.886C19.61 2.29 20.132 1.268 19.972.824L19.91.72c-.042-.062-.15-.12-.323-.172-.174-.052-.396-.06-.666-.026l-3 .021a.389.389 0 00-.208.005l-.135.032-.052.026-.042.031a.463.463 0 00-.114.11.716.716 0 00-.104.182c-.327.84-.698 1.62-1.114 2.342-.257.43-.493.804-.709 1.12a5.387 5.387 0 01-.541.697c-.146.15-.278.27-.396.36-.118.09-.208.128-.27.114a7.683 7.683 0 01-.178-.041.693.693 0 01-.234-.256 1.141 1.141 0 01-.12-.406 4.45 4.45 0 01-.036-.421 8.705 8.705 0 01.005-.5c.007-.216.01-.361.01-.438 0-.264.006-.55.016-.859l.026-.734c.007-.18.01-.371.01-.573 0-.2-.012-.359-.036-.473a1.62 1.62 0 00-.109-.334.561.561 0 00-.213-.25 1.203 1.203 0 00-.35-.14C10.66.054 10.192.008 9.623 0c-1.291-.013-2.12.07-2.489.25-.146.077-.278.181-.396.313-.125.153-.142.236-.052.25.417.062.712.211.885.447l.063.125c.049.09.097.25.146.48.048.228.08.482.093.76.035.506.035.94 0 1.301a15.51 15.51 0 01-.098.844 1.689 1.689 0 01-.266.718.18.18 0 01-.052.052.78.78 0 01-.281.052c-.098 0-.216-.048-.354-.146a2.499 2.499 0 01-.432-.4 5.36 5.36 0 01-.506-.714A12.448 12.448 0 015.3 3.25l-.166-.302a25.973 25.973 0 01-.427-.848c-.18-.372-.34-.731-.48-1.078a.687.687 0 00-.249-.333L3.926.657A.713.713 0 003.759.57 1.105 1.105 0 003.52.5L.668.521C.375.522.177.589.073.72L.031.782A.337.337 0 000 .95c0 .076.02.17.063.28.416.98.869 1.924 1.358 2.833.49.91.915 1.642 1.276 2.197.36.556.729 1.08 1.104 1.573.375.493.623.809.744.947.122.14.217.243.287.313l.26.25c.167.166.411.366.734.598.323.233.68.462 1.073.688.392.225.848.41 1.37.552.52.142 1.027.2 1.52.171h1.197c.243-.02.427-.097.552-.229l.041-.052a.688.688 0 00.078-.192c.025-.087.037-.183.037-.287a3.428 3.428 0 01.067-.807c.052-.239.111-.42.178-.541a1.329 1.329 0 01.4-.458.682.682 0 01.084-.037c.166-.055.362-.001.588.162.226.163.438.365.636.604.197.24.435.509.713.807.278.299.52.52.729.666l.208.125c.139.084.32.16.542.23.221.069.416.086.583.052l2.665-.042c.264 0 .469-.044.614-.13.146-.087.233-.183.26-.287a.806.806 0 00.006-.354 1.308 1.308 0 00-.073-.276z"/></svg><svg viewBox="0 0 19 14" id="iconYouTube" xmlns="http://www.w3.org/2000/svg"><path d="M18.26 1.148C17.573.333 16.306 0 13.89 0H5.11C2.638 0 1.35.354.667 1.222 0 2.068 0 3.315 0 5.041v3.29c0 3.343.79 5.04 5.11 5.04h8.78c2.096 0 3.258-.293 4.01-1.013.771-.738 1.1-1.942 1.1-4.028V5.04c0-1.82-.052-3.073-.74-3.892zM12.197 7.14L8.212 9.223a.612.612 0 01-.897-.543V4.527a.613.613 0 01.895-.544l3.987 2.07a.613.613 0 01.001 1.087z"/></svg></svg>